<svg xmlns="http://www.w3.org/2000/svg" width="1600" height="1000" viewBox="0 0 1600 1000">
  <defs>
    <linearGradient id="bg" x1="0" y1="0" x2="1" y2="1">
      <stop offset="0" stop-color="#070707"/>
      <stop offset="1" stop-color="#000000"/>
    </linearGradient>
    <linearGradient id="accent" x1="0" y1="0" x2="1" y2="0">
      <stop offset="0" stop-color="#22d3ee" stop-opacity="0.35"/>
      <stop offset="1" stop-color="#06b6d4" stop-opacity="0.22"/>
    </linearGradient>
    <filter id="soft" x="-20%" y="-20%" width="140%" height="140%">
      <feGaussianBlur stdDeviation="18"/>
    </filter>
  </defs>

  <rect width="1600" height="1000" fill="url(#bg)"/>
  <circle cx="360" cy="260" r="240" fill="#22d3ee" opacity="0.10" filter="url(#soft)"/>
  <circle cx="1200" cy="260" r="280" fill="#06b6d4" opacity="0.10" filter="url(#soft)"/>

  <g transform="translate(140 110)">
    <rect x="0" y="0" width="1320" height="780" rx="28" fill="#0d0d0d" stroke="rgba(255,255,255,0.10)"/>
    <rect x="0" y="0" width="1320" height="72" rx="28" fill="#0b0b0b"/>
    <g transform="translate(32 24)">
      <circle cx="0" cy="12" r="8" fill="rgba(241,245,249,0.20)"/>
      <circle cx="28" cy="12" r="8" fill="rgba(241,245,249,0.14)"/>
      <circle cx="56" cy="12" r="8" fill="rgba(241,245,249,0.10)"/>
    </g>
    <text x="660" y="46" text-anchor="middle" font-family="-apple-system,BlinkMacSystemFont,Segoe UI,Roboto,Arial" font-size="18" fill="rgba(241,245,249,0.72)" font-weight="700">OpenForge POS — Billing</text>

    <g transform="translate(24 96)">
      <rect x="0" y="0" width="840" height="664" rx="18" fill="#0b0b0b" stroke="rgba(255,255,255,0.08)"/>
      <rect x="18" y="18" width="330" height="42" rx="12" fill="rgba(255,255,255,0.03)" stroke="rgba(255,255,255,0.08)"/>
      <rect x="364" y="18" width="220" height="42" rx="12" fill="rgba(255,255,255,0.03)" stroke="rgba(255,255,255,0.08)"/>
      <rect x="600" y="18" width="220" height="42" rx="12" fill="rgba(255,255,255,0.03)" stroke="rgba(255,255,255,0.08)"/>

      <!-- line items -->
      <g transform="translate(18 84)">
        <rect x="0" y="0" width="804" height="560" rx="16" fill="rgba(255,255,255,0.02)" stroke="rgba(255,255,255,0.08)"/>
        <rect x="0" y="0" width="804" height="48" rx="16" fill="rgba(34,211,238,0.08)" stroke="rgba(34,211,238,0.14)"/>
        <g fill="rgba(241,245,249,0.70)" font-family="-apple-system,BlinkMacSystemFont,Segoe UI,Roboto,Arial" font-size="13" font-weight="800">
          <text x="24" y="30">Item</text>
          <text x="420" y="30">Qty</text>
          <text x="520" y="30">Price</text>
          <text x="660" y="30">Total</text>
        </g>
        <g transform="translate(0 72)">
          <rect x="24" y="0" width="320" height="10" rx="5" fill="rgba(241,245,249,0.18)"/>
          <rect x="420" y="-2" width="60" height="14" rx="7" fill="rgba(255,255,255,0.06)" stroke="rgba(255,255,255,0.10)"/>
          <rect x="520" y="-2" width="90" height="14" rx="7" fill="rgba(255,255,255,0.06)" stroke="rgba(255,255,255,0.10)"/>
          <rect x="660" y="-2" width="110" height="14" rx="7" fill="rgba(34,211,238,0.10)" stroke="rgba(34,211,238,0.20)"/>
        </g>
        <g transform="translate(0 120)">
          <rect x="24" y="0" width="260" height="10" rx="5" fill="rgba(241,245,249,0.14)"/>
          <rect x="420" y="-2" width="60" height="14" rx="7" fill="rgba(255,255,255,0.06)" stroke="rgba(255,255,255,0.10)"/>
          <rect x="520" y="-2" width="90" height="14" rx="7" fill="rgba(255,255,255,0.06)" stroke="rgba(255,255,255,0.10)"/>
          <rect x="660" y="-2" width="110" height="14" rx="7" fill="rgba(255,255,255,0.05)" stroke="rgba(255,255,255,0.10)"/>
        </g>
      </g>
    </g>

    <!-- totals panel -->
    <g transform="translate(886 96)">
      <rect x="0" y="0" width="410" height="664" rx="18" fill="#0b0b0b" stroke="rgba(255,255,255,0.08)"/>
      <rect x="18" y="18" width="374" height="140" rx="16" fill="rgba(255,255,255,0.03)" stroke="rgba(255,255,255,0.08)"/>
      <rect x="36" y="44" width="190" height="10" rx="5" fill="rgba(241,245,249,0.18)"/>
      <rect x="36" y="72" width="260" height="10" rx="5" fill="rgba(241,245,249,0.10)"/>
      <rect x="36" y="108" width="340" height="42" rx="21" fill="url(#accent)"/>

      <rect x="18" y="182" width="374" height="170" rx="16" fill="rgba(255,255,255,0.02)" stroke="rgba(255,255,255,0.08)"/>
      <rect x="36" y="210" width="220" height="10" rx="5" fill="rgba(241,245,249,0.14)"/>
      <rect x="36" y="238" width="280" height="10" rx="5" fill="rgba(241,245,249,0.10)"/>
      <rect x="36" y="276" width="190" height="10" rx="5" fill="rgba(241,245,249,0.14)"/>
      <rect x="36" y="304" width="260" height="10" rx="5" fill="rgba(241,245,249,0.10)"/>

      <rect x="18" y="376" width="374" height="270" rx="16" fill="rgba(255,255,255,0.02)" stroke="rgba(255,255,255,0.08)"/>
      <rect x="36" y="406" width="210" height="10" rx="5" fill="rgba(241,245,249,0.14)"/>
      <rect x="36" y="434" width="300" height="10" rx="5" fill="rgba(241,245,249,0.10)"/>
      <rect x="36" y="474" width="210" height="10" rx="5" fill="rgba(241,245,249,0.14)"/>
      <rect x="36" y="502" width="300" height="10" rx="5" fill="rgba(241,245,249,0.10)"/>
    </g>
  </g>
</svg>
