<svg xmlns="http://www.w3.org/2000/svg" width="1600" height="1000" viewBox="0 0 1600 1000">
  <defs>
    <linearGradient id="bg" x1="0" y1="0" x2="1" y2="1">
      <stop offset="0" stop-color="#070707"/>
      <stop offset="1" stop-color="#000000"/>
    </linearGradient>
    <linearGradient id="accent" x1="0" y1="0" x2="1" y2="0">
      <stop offset="0" stop-color="#22d3ee" stop-opacity="0.35"/>
      <stop offset="1" stop-color="#06b6d4" stop-opacity="0.22"/>
    </linearGradient>
    <filter id="soft" x="-20%" y="-20%" width="140%" height="140%">
      <feGaussianBlur stdDeviation="18"/>
    </filter>
  </defs>

  <rect width="1600" height="1000" fill="url(#bg)"/>
  <circle cx="360" cy="720" r="260" fill="#22d3ee" opacity="0.10" filter="url(#soft)"/>
  <circle cx="1220" cy="420" r="280" fill="#06b6d4" opacity="0.10" filter="url(#soft)"/>

  <g transform="translate(140 110)">
    <rect x="0" y="0" width="1320" height="780" rx="28" fill="#0d0d0d" stroke="rgba(255,255,255,0.10)"/>
    <rect x="0" y="0" width="1320" height="72" rx="28" fill="#0b0b0b"/>
    <g transform="translate(32 24)">
      <circle cx="0" cy="12" r="8" fill="rgba(241,245,249,0.20)"/>
      <circle cx="28" cy="12" r="8" fill="rgba(241,245,249,0.14)"/>
      <circle cx="56" cy="12" r="8" fill="rgba(241,245,249,0.10)"/>
    </g>
    <text x="660" y="46" text-anchor="middle" font-family="-apple-system,BlinkMacSystemFont,Segoe UI,Roboto,Arial" font-size="18" fill="rgba(241,245,249,0.72)" font-weight="700">OpenForge POS — Reports</text>

    <g transform="translate(24 96)">
      <rect x="0" y="0" width="1272" height="664" rx="18" fill="#0b0b0b" stroke="rgba(255,255,255,0.08)"/>

      <!-- KPIs -->
      <g transform="translate(18 18)">
        <rect x="0" y="0" width="300" height="92" rx="16" fill="rgba(255,255,255,0.03)" stroke="rgba(255,255,255,0.08)"/>
        <rect x="322" y="0" width="300" height="92" rx="16" fill="rgba(255,255,255,0.03)" stroke="rgba(255,255,255,0.08)"/>
        <rect x="644" y="0" width="300" height="92" rx="16" fill="rgba(255,255,255,0.03)" stroke="rgba(255,255,255,0.08)"/>
        <rect x="966" y="0" width="288" height="92" rx="16" fill="rgba(255,255,255,0.03)" stroke="rgba(255,255,255,0.08)"/>
        <rect x="18" y="22" width="190" height="10" rx="5" fill="rgba(241,245,249,0.18)"/>
        <rect x="18" y="50" width="240" height="10" rx="5" fill="rgba(241,245,249,0.10)"/>
        <rect x="340" y="22" width="170" height="10" rx="5" fill="rgba(241,245,249,0.18)"/>
        <rect x="340" y="50" width="220" height="10" rx="5" fill="rgba(241,245,249,0.10)"/>
        <rect x="662" y="22" width="180" height="10" rx="5" fill="rgba(241,245,249,0.18)"/>
        <rect x="662" y="50" width="220" height="10" rx="5" fill="rgba(241,245,249,0.10)"/>
        <rect x="984" y="22" width="160" height="10" rx="5" fill="rgba(241,245,249,0.18)"/>
        <rect x="984" y="50" width="220" height="10" rx="5" fill="rgba(241,245,249,0.10)"/>
      </g>

      <!-- Charts row -->
      <g transform="translate(18 132)">
        <rect x="0" y="0" width="820" height="512" rx="16" fill="rgba(255,255,255,0.02)" stroke="rgba(255,255,255,0.08)"/>
        <rect x="0" y="0" width="820" height="56" rx="16" fill="rgba(34,211,238,0.08)" stroke="rgba(34,211,238,0.14)"/>
        <rect x="24" y="22" width="220" height="12" rx="6" fill="rgba(241,245,249,0.18)"/>

        <!-- fake chart -->
        <g transform="translate(40 110)" stroke="rgba(34,211,238,0.35)" stroke-width="4" fill="none" opacity="0.85">
          <path d="M0 280 C 120 220, 180 120, 300 170 S 520 320, 700 140" />
        </g>
        <g transform="translate(40 110)" stroke="rgba(255,255,255,0.10)" stroke-width="2" fill="none">
          <path d="M0 320 H740" />
          <path d="M0 240 H740" />
          <path d="M0 160 H740" />
          <path d="M0 80 H740" />
        </g>
        <rect x="40" y="418" width="740" height="12" rx="6" fill="rgba(241,245,249,0.08)"/>
      </g>

      <!-- Right panels -->
      <g transform="translate(858 132)">
        <rect x="0" y="0" width="396" height="248" rx="16" fill="rgba(255,255,255,0.02)" stroke="rgba(255,255,255,0.08)"/>
        <rect x="0" y="0" width="396" height="56" rx="16" fill="rgba(34,211,238,0.08)" stroke="rgba(34,211,238,0.14)"/>
        <rect x="24" y="22" width="190" height="12" rx="6" fill="rgba(241,245,249,0.18)"/>
        <rect x="24" y="96" width="310" height="10" rx="5" fill="rgba(241,245,249,0.14)"/>
        <rect x="24" y="124" width="270" height="10" rx="5" fill="rgba(241,245,249,0.10)"/>
        <rect x="24" y="152" width="290" height="10" rx="5" fill="rgba(241,245,249,0.12)"/>
        <rect x="24" y="188" width="160" height="34" rx="17" fill="url(#accent)"/>

        <rect x="0" y="264" width="396" height="248" rx="16" fill="rgba(255,255,255,0.02)" stroke="rgba(255,255,255,0.08)"/>
        <rect x="0" y="264" width="396" height="56" rx="16" fill="rgba(34,211,238,0.08)" stroke="rgba(34,211,238,0.14)"/>
        <rect x="24" y="286" width="170" height="12" rx="6" fill="rgba(241,245,249,0.18)"/>
        <rect x="24" y="360" width="310" height="10" rx="5" fill="rgba(241,245,249,0.14)"/>
        <rect x="24" y="388" width="270" height="10" rx="5" fill="rgba(241,245,249,0.10)"/>
        <rect x="24" y="416" width="290" height="10" rx="5" fill="rgba(241,245,249,0.12)"/>
        <rect x="24" y="452" width="190" height="34" rx="17" fill="rgba(255,255,255,0.06)" stroke="rgba(255,255,255,0.10)"/>
      </g>
    </g>
  </g>
</svg>
