<svg xmlns="http://www.w3.org/2000/svg" width="1600" height="1000" viewBox="0 0 1600 1000">
  <defs>
    <linearGradient id="bg" x1="0" y1="0" x2="1" y2="1">
      <stop offset="0" stop-color="#070707"/>
      <stop offset="1" stop-color="#000000"/>
    </linearGradient>
    <linearGradient id="accent" x1="0" y1="0" x2="1" y2="0">
      <stop offset="0" stop-color="#22d3ee" stop-opacity="0.35"/>
      <stop offset="1" stop-color="#06b6d4" stop-opacity="0.22"/>
    </linearGradient>
    <filter id="soft" x="-20%" y="-20%" width="140%" height="140%">
      <feGaussianBlur stdDeviation="18"/>
    </filter>
  </defs>

  <rect width="1600" height="1000" fill="url(#bg)"/>
  <circle cx="320" cy="220" r="220" fill="#22d3ee" opacity="0.10" filter="url(#soft)"/>
  <circle cx="1220" cy="320" r="260" fill="#06b6d4" opacity="0.10" filter="url(#soft)"/>

  <!-- Window -->
  <g transform="translate(140 110)">
    <rect x="0" y="0" width="1320" height="780" rx="28" fill="#0d0d0d" stroke="rgba(255,255,255,0.10)"/>
    <rect x="0" y="0" width="1320" height="72" rx="28" fill="#0b0b0b"/>
    <g transform="translate(32 24)">
      <circle cx="0" cy="12" r="8" fill="rgba(241,245,249,0.20)"/>
      <circle cx="28" cy="12" r="8" fill="rgba(241,245,249,0.14)"/>
      <circle cx="56" cy="12" r="8" fill="rgba(241,245,249,0.10)"/>
    </g>
    <text x="660" y="46" text-anchor="middle" font-family="-apple-system,BlinkMacSystemFont,Segoe UI,Roboto,Arial" font-size="18" fill="rgba(241,245,249,0.72)" font-weight="700">OpenForge POS — Stock</text>

    <!-- Sidebar -->
    <g transform="translate(24 96)">
      <rect x="0" y="0" width="260" height="664" rx="18" fill="#0b0b0b" stroke="rgba(255,255,255,0.08)"/>
      <rect x="18" y="18" width="224" height="42" rx="12" fill="rgba(34,211,238,0.10)" stroke="rgba(34,211,238,0.18)"/>
      <g fill="rgba(241,245,249,0.60)" font-family="-apple-system,BlinkMacSystemFont,Segoe UI,Roboto,Arial" font-size="14" font-weight="700">
        <text x="34" y="46">Inventory</text>
      </g>
      <g fill="rgba(241,245,249,0.42)" font-family="-apple-system,BlinkMacSystemFont,Segoe UI,Roboto,Arial" font-size="13" font-weight="600">
        <text x="34" y="104">Products</text>
        <text x="34" y="144">Stock Alerts</text>
        <text x="34" y="184">Suppliers</text>
        <text x="34" y="224">Purchases</text>
        <text x="34" y="264">Reports</text>
        <text x="34" y="304">Settings</text>
      </g>
    </g>

    <!-- Main content -->
    <g transform="translate(308 96)">
      <rect x="0" y="0" width="988" height="664" rx="18" fill="#0b0b0b" stroke="rgba(255,255,255,0.08)"/>

      <!-- Top stats -->
      <g transform="translate(18 18)">
        <rect x="0" y="0" width="300" height="84" rx="16" fill="rgba(255,255,255,0.03)" stroke="rgba(255,255,255,0.08)"/>
        <rect x="322" y="0" width="300" height="84" rx="16" fill="rgba(255,255,255,0.03)" stroke="rgba(255,255,255,0.08)"/>
        <rect x="644" y="0" width="326" height="84" rx="16" fill="rgba(255,255,255,0.03)" stroke="rgba(255,255,255,0.08)"/>
        <rect x="18" y="18" width="160" height="12" rx="6" fill="rgba(241,245,249,0.22)"/>
        <rect x="18" y="44" width="210" height="10" rx="5" fill="rgba(241,245,249,0.12)"/>
        <rect x="340" y="18" width="140" height="12" rx="6" fill="rgba(241,245,249,0.22)"/>
        <rect x="340" y="44" width="220" height="10" rx="5" fill="rgba(241,245,249,0.12)"/>
        <rect x="662" y="18" width="170" height="12" rx="6" fill="rgba(241,245,249,0.22)"/>
        <rect x="662" y="44" width="240" height="10" rx="5" fill="rgba(241,245,249,0.12)"/>
        <rect x="880" y="18" width="72" height="28" rx="14" fill="url(#accent)"/>
      </g>

      <!-- Table -->
      <g transform="translate(18 124)">
        <rect x="0" y="0" width="952" height="522" rx="16" fill="rgba(255,255,255,0.02)" stroke="rgba(255,255,255,0.08)"/>
        <rect x="0" y="0" width="952" height="48" rx="16" fill="rgba(34,211,238,0.08)" stroke="rgba(34,211,238,0.14)"/>
        <g fill="rgba(241,245,249,0.70)" font-family="-apple-system,BlinkMacSystemFont,Segoe UI,Roboto,Arial" font-size="13" font-weight="800">
          <text x="24" y="30">Item</text>
          <text x="420" y="30">SKU</text>
          <text x="560" y="30">Category</text>
          <text x="740" y="30">Stock</text>
          <text x="860" y="30">Reorder</text>
        </g>
        <!-- rows -->
        <g>
          <rect x="18" y="72" width="340" height="10" rx="5" fill="rgba(241,245,249,0.18)"/>
          <rect x="420" y="72" width="90" height="10" rx="5" fill="rgba(241,245,249,0.10)"/>
          <rect x="560" y="72" width="120" height="10" rx="5" fill="rgba(241,245,249,0.10)"/>
          <rect x="740" y="70" width="70" height="14" rx="7" fill="rgba(255,255,255,0.06)" stroke="rgba(255,255,255,0.10)"/>
          <rect x="860" y="70" width="70" height="14" rx="7" fill="rgba(34,211,238,0.10)" stroke="rgba(34,211,238,0.20)"/>
        </g>
        <g transform="translate(0 46)">
          <rect x="18" y="72" width="280" height="10" rx="5" fill="rgba(241,245,249,0.14)"/>
          <rect x="420" y="72" width="86" height="10" rx="5" fill="rgba(241,245,249,0.10)"/>
          <rect x="560" y="72" width="140" height="10" rx="5" fill="rgba(241,245,249,0.10)"/>
          <rect x="740" y="70" width="70" height="14" rx="7" fill="rgba(255,255,255,0.06)" stroke="rgba(255,255,255,0.10)"/>
          <rect x="860" y="70" width="70" height="14" rx="7" fill="rgba(255,255,255,0.05)" stroke="rgba(255,255,255,0.10)"/>
        </g>
        <g transform="translate(0 92)">
          <rect x="18" y="72" width="320" height="10" rx="5" fill="rgba(241,245,249,0.16)"/>
          <rect x="420" y="72" width="96" height="10" rx="5" fill="rgba(241,245,249,0.10)"/>
          <rect x="560" y="72" width="120" height="10" rx="5" fill="rgba(241,245,249,0.10)"/>
          <rect x="740" y="70" width="70" height="14" rx="7" fill="rgba(255,255,255,0.06)" stroke="rgba(255,255,255,0.10)"/>
          <rect x="860" y="70" width="70" height="14" rx="7" fill="rgba(34,211,238,0.10)" stroke="rgba(34,211,238,0.20)"/>
        </g>
      </g>
    </g>
  </g>
</svg>
